HIERARCHY
ROOT Hips
{
	OFFSET 0.00000 0.00000 0.00000
	CHANNELS 6 Xposition Yposition Zposition Zrotation Yrotation Xrotation 
	JOINT LHipJoint
	{
		OFFSET 0 0 0
		CHANNELS 3 Zrotation Yrotation Xrotation
		JOINT LeftUpLeg
		{
			OFFSET 1.85590 -1.73949 0.84976
			CHANNELS 3 Zrotation Yrotation Xrotation
			JOINT LeftLeg
			{
				OFFSET 2.36836 -6.50702 0.00000
				CHANNELS 3 Zrotation Yrotation Xrotation
				JOINT LeftFoot
				{
					OFFSET 2.53268 -6.95849 0.00000
					CHANNELS 3 Zrotation Yrotation Xrotation
					JOINT LeftToeBase
					{
						OFFSET 0.15935 -0.43781 1.94506
						CHANNELS 3 Zrotation Yrotation Xrotation
						End Site
						{
							OFFSET 0.00000 -0.00000 1.00661
						}
					}
				}
			}
		}
	}
	JOINT RHipJoint
	{
		OFFSET 0 0 0
		CHANNELS 3 Zrotation Yrotation Xrotation
		JOINT RightUpLeg
		{
			OFFSET -1.68297 -1.73949 0.84976
			CHANNELS 3 Zrotation Yrotation Xrotation
			JOINT RightLeg
			{
				OFFSET -2.44709 -6.72334 0.00000
				CHANNELS 3 Zrotation Yrotation Xrotation
				JOINT RightFoot
				{
					OFFSET -2.43843 -6.69953 0.00000
					CHANNELS 3 Zrotation Yrotation Xrotation
					JOINT RightToeBase
					{
						OFFSET -0.20854 -0.57295 2.02172
						CHANNELS 3 Zrotation Yrotation Xrotation
						End Site
						{
							OFFSET -0.00000 -0.00000 1.05594
						}
					}
				}
			}
		}
	}
	JOINT LowerBack
	{
		OFFSET 0 0 0
		CHANNELS 3 Zrotation Yrotation Xrotation
		JOINT Spine
		{
			OFFSET -0.01560 2.23971 -0.03712
			CHANNELS 3 Zrotation Yrotation Xrotation
			JOINT Spine1
			{
				OFFSET 0.05490 2.19225 -0.19086
				CHANNELS 3 Zrotation Yrotation Xrotation
				JOINT Neck
				{
					OFFSET 0 0 0
					CHANNELS 3 Zrotation Yrotation Xrotation
					JOINT Neck1
					{
						OFFSET -0.12403 1.43168 0.27585
						CHANNELS 3 Zrotation Yrotation Xrotation
						JOINT Head
						{
							OFFSET 0.17855 1.46173 -0.32578
							CHANNELS 3 Zrotation Yrotation Xrotation
							End Site
							{
								OFFSET 0.07217 1.51590 -0.14537
							}
						}
					}
				}
				JOINT LeftShoulder
				{
					OFFSET 0 0 0
					CHANNELS 3 Zrotation Yrotation Xrotation
					JOINT LeftArm
					{
						OFFSET 3.27650 0.85634 0.05396
						CHANNELS 3 Zrotation Yrotation Xrotation
						JOINT LeftForeArm
						{
							OFFSET 4.96755 -0.00000 0.00000
							CHANNELS 3 Zrotation Yrotation Xrotation
							JOINT LeftHand
							{
								OFFSET 3.35751 -0.00000 0.00000
								CHANNELS 3 Zrotation Yrotation Xrotation
								JOINT LeftFingerBase
								{
									OFFSET 0 0 0
									CHANNELS 3 Zrotation Yrotation Xrotation
									JOINT LeftHandIndex1
									{
										OFFSET 0.79697 -0.00000 0.00000
										CHANNELS 3 Zrotation Yrotation Xrotation
										End Site
										{
											OFFSET 0.64254 -0.00000 0.00000
										}
									}
								}
								JOINT LThumb
								{
									OFFSET 0 0 0
									CHANNELS 3 Zrotation Yrotation Xrotation
									End Site
									{
										OFFSET 0.65235 -0.00000 0.65235
									}
								}
							}
						}
					}
				}
				JOINT RightShoulder
				{
					OFFSET 0 0 0
					CHANNELS 3 Zrotation Yrotation Xrotation
					JOINT RightArm
					{
						OFFSET -3.24434 1.02034 0.34688
						CHANNELS 3 Zrotation Yrotation Xrotation
						JOINT RightForeArm
						{
							OFFSET -5.21859 -0.00000 -0.00000
							CHANNELS 3 Zrotation Yrotation Xrotation
							JOINT RightHand
							{
								OFFSET -3.36504 -0.00000 0.00000
								CHANNELS 3 Zrotation Yrotation Xrotation
								JOINT RightFingerBase
								{
									OFFSET 0 0 0
									CHANNELS 3 Zrotation Yrotation Xrotation
									JOINT RightHandIndex1
									{
										OFFSET -0.62044 -0.00000 0.00000
										CHANNELS 3 Zrotation Yrotation Xrotation
										End Site
										{
											OFFSET -0.50022 -0.00000 0.00000
										}
									}
								}
								JOINT RThumb
								{
									OFFSET 0 0 0
									CHANNELS 3 Zrotation Yrotation Xrotation
									End Site
									{
										OFFSET -0.50786 -0.00000 0.50786
									}
								}
							}
						}
					}
				}
			}
		}
	}
}
MOTION
Frames: 14
Frame Time: 0.117647
0.00 0.00 0.00 0 0 0 0 0 0 -21 0 0 0 0 0 0 0 0 0 0 0 0 0 0 21 0 0 0 0 0 0 0 0 0 0 0 0 0 0 0 0 0 0 0 0 0 0 -16 0 0 21 0 0 11 0 0 0 -8 0 0 0 0 0 0 0 0 0 0 0 0 0 0 0 0 0 0 0 0 8 0 0 0 0 0 0 0 0 0 0 0 0 0 0 0 0 0
0.00 0.00 0.00 -2.8614 -3.7572 7.9588 0.0000 0.0000 0.0000 -14.0262 -4.2455 -42.4910 6.6506 15.0305 47.5401 0.7830 6.3782 -20.2192 0.2990 -3.5162 -9.7193 0.0000 0.0000 0.0000 27.5891 9.0889 -6.9252 -2.1312 -9.1342 26.2160 -1.6534 7.5836 -23.0338 -0.6436 5.1322 -14.2861 -0.4849 1.0845 -2.5641 2.7764 1.4316 -0.5032 3.1691 0.7136 0.8382 -13.3670 -4.7738 -21.5543 13.2348 -5.3830 18.2145 6.1633 -1.9400 10.1050 0.0000 0.0000 0.0000 -84.6938 20.8062 45.2306 17.7035 -27.7758 -4.4102 -0.0000 0.0000 -7.4386 6.7472 -22.3509 -2.5760 -7.1250 0.0000 -0.0000 -13.8617 8.0128 12.1652 0.0000 0.0000 0.0000 73.4168 0.1855 46.4267 -32.0918 42.6203 -12.8030 0.0000 -0.0000 -25.6087 -35.0554 -23.3810 15.5596 7.1250 -0.0000 -0.0000 -6.7171 -57.6946 2.0938
0.00 0.00 0.00 -4.1185 -5.6049 8.6778 0.0000 0.0000 0.0000 -10.5200 -6.0363 -45.4751 2.9826 10.6668 31.1643 0.6351 5.7046 -18.2035 0.3689 -3.9012 -10.7990 0.0000 0.0000 0.0000 28.7204 6.9495 0.9105 -1.1481 -6.8038 19.1354 -1.6661 8.9161 -23.1300 -0.3290 3.6867 -10.1969 0.2675 2.1546 -3.0400 2.9836 2.8215 -0.2758 3.0280 1.4062 1.2821 -13.3996 -4.8995 -21.0514 13.7171 -5.6069 16.9330 6.2654 -2.0080 9.6174 -0.0000 0.0000 0.0000 -84.6490 25.9303 43.5011 19.0877 -29.5275 -5.0740 -0.0000 0.0000 -11.7800 10.2663 -23.9646 -4.2075 -7.1250 0.0000 -0.0000 -11.7130 6.0902 10.6342 -0.0000 0.0000 0.0000 72.1546 4.6274 48.2785 -34.7890 44.6609 -14.6648 0.0000 -0.0000 -26.9154 -33.6299 -16.5882 10.7522 7.1250 -0.0000 -0.0000 -5.7863 -49.5777 0.6551
0.00 0.00 0.00 -6.6268 -7.8507 9.3605 0.0000 0.0000 0.0000 -1.1479 -11.7064 -45.4273 1.1699 6.8656 19.3178 0.2284 9.3629 -16.7424 0.3665 -3.8886 -10.7634 0.0000 0.0000 0.0000 29.3789 2.2911 13.3410 -0.1083 -2.1215 5.8417 -0.9887 7.8772 -17.7983 -1.1385 6.7760 -19.0534 2.2855 3.3530 -3.5276 3.5303 4.3078 -0.0170 2.5683 2.1572 1.8531 -13.8372 -5.2478 -20.6412 14.3233 -6.0583 16.0266 6.4645 -2.1983 9.3392 -0.0000 -0.0000 0.0000 -86.6857 28.9251 34.9088 16.8080 -26.6040 -4.0010 -0.0000 0.0000 -8.5963 8.5363 -22.5614 -3.2960 -7.1250 0.0000 -0.0000 -12.7544 7.6464 11.2332 -0.0000 -0.0000 0.0000 71.3570 7.4719 49.3003 -37.5112 46.5242 -16.6099 0.0000 -0.0000 -29.0841 -35.9006 -22.1377 15.2584 7.1250 -0.0000 -0.0000 -7.8402 -56.4751 2.2153
0.00 0.00 0.00 -6.6891 -8.2384 10.0478 0.0000 0.0000 0.0000 -5.5879 -6.5983 -52.0266 3.3909 11.3024 33.3068 -0.3195 10.0426 -5.0575 0.1594 -2.5728 -7.0915 0.0000 0.0000 0.0000 25.3398 -1.6373 24.7893 0.0000 0.0000 -0.0000 -0.1144 4.7164 -6.4112 -2.1093 9.0901 -26.0775 2.2927 3.7650 -4.7877 3.1082 4.8269 -0.5109 2.2285 2.4169 2.0719 -13.7237 -5.3760 -20.0567 16.1138 -6.6739 15.4053 6.9977 -2.3243 9.2004 -0.0000 -0.0000 0.0000 -89.1154 27.1352 17.1426 10.1726 -17.0092 -1.5251 -0.0000 -0.0000 5.8740 7.1707 -23.0724 -2.8226 -7.1250 0.0000 -0.0000 -13.6001 7.2730 12.1245 -0.0000 -0.0000 0.0000 73.0294 3.5538 48.5994 -37.8525 46.7449 -16.8581 0.0000 -0.0000 -31.1534 -34.6086 -22.0641 14.5325 7.1250 -0.0000 -0.0000 -6.3638 -56.0856 1.7354
0.00 0.00 0.00 -4.2746 -6.7381 9.5023 0.0000 0.0000 0.0000 -10.6718 -5.8253 -52.6144 5.2665 13.6778 41.9617 -0.1001 5.6073 -2.3049 0.0274 -1.0680 -2.9358 0.0000 0.0000 0.0000 21.6282 -2.9498 22.1832 -0.4512 -4.3094 11.9487 -0.0119 -0.8157 1.9373 -1.0552 6.5315 -18.3347 -0.0894 3.2502 -4.6557 2.4201 4.2915 -0.7665 2.7880 2.1405 1.6236 -13.9966 -5.7580 -20.0092 16.6766 -7.2471 15.3057 7.1658 -2.5566 9.2955 -0.0000 0.0000 0.0000 -88.7402 25.2560 12.8005 9.1500 -15.3991 -1.2396 -0.0000 -0.0000 11.5380 5.8979 -23.6707 -2.3749 -7.1250 0.0000 -0.0000 -14.3786 6.8029 13.0009 -0.0000 0.0000 0.0000 74.3602 -1.0928 47.1616 -36.1180 45.5941 -15.6067 0.0000 -0.0000 -32.8777 -36.4814 -24.1617 16.8395 7.1250 -0.0000 -0.0000 -8.3362 -58.9450 2.8535
0.00 0.00 0.00 -1.3502 -6.8255 8.7720 0.0000 0.0000 0.0000 -15.4672 -5.1346 -49.6348 5.7967 14.2284 44.1601 0.0667 2.9251 -6.8432 0.0661 -1.6587 -4.5635 0.0000 0.0000 0.0000 17.1989 -3.9027 14.9181 -2.3980 -9.6501 27.8510 -0.1695 -4.1791 7.4419 -0.6680 5.2268 -14.5567 -2.5030 3.1667 -3.6280 1.4089 4.2978 -1.2309 3.0064 2.1598 0.4725 -13.9259 -5.7940 -18.6255 16.5777 -7.4359 15.0235 7.0761 -2.7125 8.9731 -0.0000 -0.0000 0.0000 -87.8287 24.2612 14.9733 9.5149 -15.9771 -1.3383 -0.0000 -0.0000 9.7501 6.7220 -23.1443 -2.6524 -7.1250 0.0000 -0.0000 -13.8757 7.2428 12.3942 -0.0000 -0.0000 0.0000 76.1005 -4.5673 45.4971 -33.6976 43.8594 -13.9031 0.0000 -0.0000 -32.2098 -38.3066 -25.4617 18.7575 7.1250 -0.0000 -0.0000 -10.5233 -60.9229 4.1090
0.00 0.00 0.00 1.9235 -6.4240 8.2785 0.0000 0.0000 0.0000 -20.8831 -4.5516 -44.4680 5.4884 13.9136 42.8924 0.2581 1.4099 -10.2172 0.0729 -1.7420 -4.7930 0.0000 0.0000 0.0000 13.6714 -2.8816 5.2794 -6.5193 -14.9133 47.0318 0.0177 -13.2108 9.0462 -0.1074 2.1136 -5.8196 -5.2106 2.5228 -2.9809 0.5008 3.5054 -1.1696 3.5280 1.7746 0.1209 -14.1174 -5.3863 -18.2790 16.6320 -6.8356 14.7983 7.2109 -2.4547 8.7394 -0.0000 -0.0000 0.0000 -87.3018 21.0502 18.3604 10.2240 -17.0892 -1.5401 -0.0000 -0.0000 5.7324 9.6608 -23.9588 -3.9544 -7.1250 0.0000 -0.0000 -12.0838 6.1611 10.9699 -0.0000 -0.0000 0.0000 78.2427 -6.0158 43.4736 -28.4123 39.4931 -10.3849 0.0000 -0.0000 -28.8576 -37.2931 -23.9458 17.1772 7.1250 -0.0000 -0.0000 -9.3531 -58.9069 3.1967
0.00 0.00 0.00 2.4635 -5.5099 8.1597 0.0000 0.0000 0.0000 -23.4694 -3.3514 -37.0400 4.7106 13.0503 39.5569 0.5167 0.0304 -13.5932 0.0787 -1.8097 -4.9801 0.0000 0.0000 0.0000 14.5339 1.0838 -7.1620 -11.7060 -18.2636 65.0539 0.4024 -11.7271 -0.4607 -0.1740 2.6871 -7.4088 -5.1185 1.7282 -2.8128 0.4393 2.4473 -0.6585 3.3975 1.2196 0.6652 -13.3373 -5.0402 -19.1299 15.9606 -6.4238 15.6344 6.9164 -2.2351 9.0470 0.0000 0.0000 0.0000 -86.3250 13.5510 22.7937 11.0419 -18.3525 -1.7891 -0.0000 -0.0000 2.7697 12.3183 -23.2338 -4.9235 -7.1250 0.0000 -0.0000 -10.4245 6.5827 9.3202 0.0000 0.0000 0.0000 79.7225 -8.8241 40.9022 -24.0365 35.2028 -7.7276 0.0000 -0.0000 -24.5157 -34.7855 -20.3565 13.5845 7.1250 -0.0000 -0.0000 -6.7358 -54.1661 1.5227
0.00 0.00 0.00 3.1458 -0.6123 7.0214 0.0000 0.0000 0.0000 -26.6167 -1.7681 -17.8047 2.5228 9.8793 28.5868 1.0040 -1.0077 -18.6293 0.0672 -1.6729 -4.6024 0.0000 0.0000 0.0000 15.6401 10.2671 -30.4120 -12.0559 -18.4142 66.1660 -0.5656 -4.7339 -16.7231 -0.5069 4.5638 -12.6686 -5.0272 -1.4008 -1.9777 1.0998 -1.7568 0.4408 3.8911 -0.9353 1.7504 -12.2706 -3.5189 -19.9420 13.5577 -4.1579 17.3029 6.2314 -1.3112 9.2878 0.0000 -0.0000 0.0000 -82.0394 -3.6868 38.0145 15.2678 -24.5179 -3.3363 -0.0000 0.0000 -5.5816 14.9390 -25.3248 -6.5108 -7.1250 0.0000 -0.0000 -8.9218 4.1546 8.3558 0.0000 -0.0000 0.0000 78.6634 -14.8280 40.0332 -18.5504 28.8562 -4.8119 0.0000 -0.0000 -17.3716 -32.9486 -24.0148 14.7764 7.1250 -0.0000 -0.0000 -4.1445 -57.8971 1.3097
0.00 0.00 0.00 4.7206 2.1444 6.7838 0.0000 0.0000 0.0000 -28.6627 0.2879 -7.0257 1.2541 7.0996 20.0108 1.1285 -1.3052 -19.6912 0.0601 -1.5821 -4.3520 0.0000 0.0000 0.0000 11.7031 13.4537 -37.1664 -7.5775 -15.7995 51.0260 -1.0721 -3.1469 -20.9290 -0.6755 5.2553 -14.6382 -6.3445 -2.8047 -1.8614 0.9762 -3.5918 0.8011 4.4114 -1.8924 2.3273 -12.8002 -3.1870 -19.7342 13.4512 -3.5283 17.2545 6.3675 -1.0709 9.1458 -0.0000 0.0000 0.0000 -79.3731 -11.5761 43.2804 17.8835 -28.0077 -4.4944 -0.0000 0.0000 -8.3577 14.9351 -24.9143 -6.4112 -7.1250 0.0000 -0.0000 -8.8979 4.5677 8.2633 -0.0000 0.0000 0.0000 77.3923 -18.9319 39.0345 -18.8312 29.2083 -4.9482 0.0000 -0.0000 -20.4659 -30.7932 -18.2907 10.5939 7.1250 -0.0000 -0.0000 -2.7330 -51.0058 0.4047
0.00 0.00 0.00 5.7245 4.1798 7.5596 0.0000 0.0000 0.0000 -29.2696 3.5222 4.8190 0.1141 2.1778 5.9974 0.8575 0.0359 -17.5187 0.0479 -1.4127 -3.8851 0.0000 0.0000 0.0000 6.0961 18.1217 -40.3097 -3.6317 -11.6535 34.5170 -1.3124 -1.2959 -22.1522 -0.7231 5.4337 -15.1498 -7.1155 -4.0087 -3.0402 0.8090 -5.0738 1.0569 4.4810 -2.6854 3.4974 -12.6899 -2.7829 -20.2382 13.5215 -2.9576 17.3094 6.4604 -0.7734 9.1691 0.0000 0.0000 0.0000 -76.3591 -18.0077 46.5760 19.8371 -30.4456 -5.4486 -0.0000 0.0000 -10.7505 16.0166 -25.3847 -7.0156 -7.1250 0.0000 -0.0000 -8.2709 3.9397 7.7659 0.0000 0.0000 0.0000 76.4838 -22.2995 38.4132 -20.2154 30.9010 -5.6415 0.0000 -0.0000 -22.2048 -30.4468 -15.5512 8.9554 7.1250 -0.0000 -0.0000 -2.7036 -47.8514 0.1903
0.00 0.00 0.00 8.2327 6.2509 7.7640 0.0000 0.0000 0.0000 -24.7093 12.2433 22.7984 0.0000 -0.0000 -0.0000 0.2743 -3.7444 -9.3135 1.1360 -6.7691 -19.0330 0.0000 0.0000 0.0000 2.3319 16.0739 -47.9386 -4.1318 -12.3338 36.9231 -0.1744 -1.2877 -8.4683 -1.7902 8.4147 -23.9810 -10.0141 -5.5298 -4.4353 0.5272 -6.8367 0.5152 5.5062 -3.6264 4.2676 -12.3793 -2.0988 -20.6327 13.1534 -2.0306 18.0468 6.4328 -0.3494 9.3446 0.0000 0.0000 0.0000 -77.7628 -19.6136 45.8071 23.0981 -34.1959 -7.1934 -0.0000 0.0000 -7.7497 13.9690 -27.2884 -6.5063 -7.1250 0.0000 -0.0000 -9.6369 2.3263 9.3729 0.0000 0.0000 0.0000 77.5806 -24.1715 24.9176 -14.9152 24.0278 -3.1913 0.0000 -0.0000 -16.6386 -31.0322 -22.5429 12.9881 7.1250 -0.0000 -0.0000 -2.2704 -55.8120 0.6025
0.00 0.00 0.00 5.4527 4.4360 6.4185 0.0000 0.0000 0.0000 -19.4951 15.7284 21.7537 0.3665 3.8888 10.7641 0.0043 4.2054 3.1121 1.0159 -6.4125 -17.9859 0.0000 0.0000 0.0000 8.9630 15.4407 -46.4717 -6.4822 -14.8799 46.8878 -0.0974 3.1228 -5.6319 -0.4376 4.2450 -11.7669 -7.5415 -4.8725 -4.2360 1.2073 -6.1480 0.2639 4.9715 -3.2119 3.5760 -11.4915 -1.7972 -21.3252 12.3278 -1.7072 19.1156 6.0761 -0.2132 9.7792 -0.0000 0.0000 0.0000 -80.0827 -12.9854 45.9246 23.1468 -34.2490 -7.2208 -0.0000 0.0000 -8.4870 13.5693 -27.2420 -6.3046 -7.1250 0.0000 -0.0000 -9.8714 2.4293 9.5893 -0.0000 0.0000 0.0000 78.5095 -21.7428 20.8328 -12.8493 21.0660 -2.3988 0.0000 -0.0000 -9.9926 -29.9645 -23.2477 12.8198 7.1250 -0.0000 -0.0000 -0.9266 -56.3526 0.2580
